<svg xmlns="http://www.w3.org/2000/svg" width="920" height="472" viewBox="0 0 920 472">
<rect width="100%" height="100%" fill="#ffffff"/>
<text x="32" y="38" font-family="Arial, sans-serif" font-size="22" font-weight="700" fill="#111827">Average fare by dataset</text>
<text x="220" y="454" font-family="Arial, sans-serif" font-size="12" fill="#4b5563">Average fare</text>
<text x="32" y="95" font-family="Arial, sans-serif" font-size="13" fill="#111827">fhv_tripdata_2025-12</text>
<rect x="220" y="72" width="0" height="24" rx="3" fill="#2563eb"/>
<text x="228" y="90" font-family="Arial, sans-serif" font-size="12" fill="#374151">0</text>
<text x="32" y="137" font-family="Arial, sans-serif" font-size="13" fill="#111827">fhv_tripdata_2026-01</text>
<rect x="220" y="114" width="0" height="24" rx="3" fill="#059669"/>
<text x="228" y="132" font-family="Arial, sans-serif" font-size="12" fill="#374151">0</text>
<text x="32" y="179" font-family="Arial, sans-serif" font-size="13" fill="#111827">fhvhv_tripdata_2025-12</text>
<rect x="220" y="156" width="496" height="24" rx="3" fill="#dc2626"/>
<text x="724" y="174" font-family="Arial, sans-serif" font-size="12" fill="#374151">28</text>
<text x="32" y="221" font-family="Arial, sans-serif" font-size="13" fill="#111827">fhvhv_tripdata_2026-01</text>
<rect x="220" y="198" width="640" height="24" rx="3" fill="#7c3aed"/>
<text x="868" y="216" font-family="Arial, sans-serif" font-size="12" fill="#374151">36</text>
<text x="32" y="263" font-family="Arial, sans-serif" font-size="13" fill="#111827">green_tripdata_2025-12</text>
<rect x="220" y="240" width="450" height="24" rx="3" fill="#ea580c"/>
<text x="678" y="258" font-family="Arial, sans-serif" font-size="12" fill="#374151">25</text>
<text x="32" y="305" font-family="Arial, sans-serif" font-size="13" fill="#111827">green_tripdata_2026-01</text>
<rect x="220" y="282" width="436" height="24" rx="3" fill="#0891b2"/>
<text x="664" y="300" font-family="Arial, sans-serif" font-size="12" fill="#374151">24</text>
<text x="32" y="347" font-family="Arial, sans-serif" font-size="13" fill="#111827">yellow_tripdata_2025-12</text>
<rect x="220" y="324" width="578" height="24" rx="3" fill="#2563eb"/>
<text x="806" y="342" font-family="Arial, sans-serif" font-size="12" fill="#374151">32</text>
<text x="32" y="389" font-family="Arial, sans-serif" font-size="13" fill="#111827">yellow_tripdata_2026-01</text>
<rect x="220" y="366" width="545" height="24" rx="3" fill="#059669"/>
<text x="773" y="384" font-family="Arial, sans-serif" font-size="12" fill="#374151">30</text>
</svg>