<svg xmlns="http://www.w3.org/2000/svg" width="920" height="472" viewBox="0 0 920 472">
<rect width="100%" height="100%" fill="#ffffff"/>
<text x="32" y="38" font-family="Arial, sans-serif" font-size="22" font-weight="700" fill="#111827">Clean trip volume by dataset</text>
<text x="220" y="454" font-family="Arial, sans-serif" font-size="12" fill="#4b5563">Clean rows</text>
<text x="32" y="95" font-family="Arial, sans-serif" font-size="13" fill="#111827">fhv_tripdata_2025-12</text>
<rect x="220" y="72" width="640" height="24" rx="3" fill="#2563eb"/>
<text x="868" y="90" font-family="Arial, sans-serif" font-size="12" fill="#374151">200,000</text>
<text x="32" y="137" font-family="Arial, sans-serif" font-size="13" fill="#111827">fhv_tripdata_2026-01</text>
<rect x="220" y="114" width="640" height="24" rx="3" fill="#059669"/>
<text x="868" y="132" font-family="Arial, sans-serif" font-size="12" fill="#374151">200,000</text>
<text x="32" y="179" font-family="Arial, sans-serif" font-size="13" fill="#111827">fhvhv_tripdata_2025-12</text>
<rect x="220" y="156" width="639" height="24" rx="3" fill="#dc2626"/>
<text x="867" y="174" font-family="Arial, sans-serif" font-size="12" fill="#374151">199,956</text>
<text x="32" y="221" font-family="Arial, sans-serif" font-size="13" fill="#111827">fhvhv_tripdata_2026-01</text>
<rect x="220" y="198" width="639" height="24" rx="3" fill="#7c3aed"/>
<text x="867" y="216" font-family="Arial, sans-serif" font-size="12" fill="#374151">199,975</text>
<text x="32" y="263" font-family="Arial, sans-serif" font-size="13" fill="#111827">green_tripdata_2025-12</text>
<rect x="220" y="240" width="153" height="24" rx="3" fill="#ea580c"/>
<text x="381" y="258" font-family="Arial, sans-serif" font-size="12" fill="#374151">48,074</text>
<text x="32" y="305" font-family="Arial, sans-serif" font-size="13" fill="#111827">green_tripdata_2026-01</text>
<rect x="220" y="282" width="128" height="24" rx="3" fill="#0891b2"/>
<text x="356" y="300" font-family="Arial, sans-serif" font-size="12" fill="#374151">40,152</text>
<text x="32" y="347" font-family="Arial, sans-serif" font-size="13" fill="#111827">yellow_tripdata_2025-12</text>
<rect x="220" y="324" width="630" height="24" rx="3" fill="#2563eb"/>
<text x="858" y="342" font-family="Arial, sans-serif" font-size="12" fill="#374151">197,083</text>
<text x="32" y="389" font-family="Arial, sans-serif" font-size="13" fill="#111827">yellow_tripdata_2026-01</text>
<rect x="220" y="366" width="627" height="24" rx="3" fill="#059669"/>
<text x="855" y="384" font-family="Arial, sans-serif" font-size="12" fill="#374151">196,059</text>
</svg>