<svg xmlns="http://www.w3.org/2000/svg" width="920" height="430" viewBox="0 0 920 430">
<rect width="100%" height="100%" fill="#ffffff"/>
<text x="32" y="38" font-family="Arial, sans-serif" font-size="22" font-weight="700" fill="#111827">Top pickup boroughs</text>
<text x="220" y="412" font-family="Arial, sans-serif" font-size="12" fill="#4b5563">Clean pickups</text>
<text x="32" y="95" font-family="Arial, sans-serif" font-size="13" fill="#111827">Manhattan</text>
<rect x="220" y="72" width="640" height="24" rx="3" fill="#2563eb"/>
<text x="868" y="90" font-family="Arial, sans-serif" font-size="12" fill="#374151">524,141</text>
<text x="32" y="137" font-family="Arial, sans-serif" font-size="13" fill="#111827">Queens</text>
<rect x="220" y="114" width="214" height="24" rx="3" fill="#059669"/>
<text x="442" y="132" font-family="Arial, sans-serif" font-size="12" fill="#374151">175,764</text>
<text x="32" y="179" font-family="Arial, sans-serif" font-size="13" fill="#111827">Brooklyn</text>
<rect x="220" y="156" width="198" height="24" rx="3" fill="#dc2626"/>
<text x="426" y="174" font-family="Arial, sans-serif" font-size="12" fill="#374151">162,417</text>
<text x="32" y="221" font-family="Arial, sans-serif" font-size="13" fill="#111827">Bronx</text>
<rect x="220" y="198" width="87" height="24" rx="3" fill="#7c3aed"/>
<text x="315" y="216" font-family="Arial, sans-serif" font-size="12" fill="#374151">72,066</text>
<text x="32" y="263" font-family="Arial, sans-serif" font-size="13" fill="#111827">Staten Island</text>
<rect x="220" y="240" width="14" height="24" rx="3" fill="#ea580c"/>
<text x="242" y="258" font-family="Arial, sans-serif" font-size="12" fill="#374151">11,875</text>
<text x="32" y="305" font-family="Arial, sans-serif" font-size="13" fill="#111827">Unknown</text>
<rect x="220" y="282" width="1" height="24" rx="3" fill="#0891b2"/>
<text x="229" y="300" font-family="Arial, sans-serif" font-size="12" fill="#374151">915</text>
<text x="32" y="347" font-family="Arial, sans-serif" font-size="13" fill="#111827">EWR</text>
<rect x="220" y="324" width="0" height="24" rx="3" fill="#2563eb"/>
<text x="228" y="342" font-family="Arial, sans-serif" font-size="12" fill="#374151">297</text>
</svg>